<?xml version="1.0" encoding="utf-8"?>
<!-- Generator: Adobe Illustrator 24.2.0, SVG Export Plug-In . SVG Version: 6.00 Build 0)  -->
<svg version="1.1" id="Layer_1" xmlns="http://www.w3.org/2000/svg" xmlns:xlink="http://www.w3.org/1999/xlink" x="0px" y="0px"
	 viewBox="0 0 186 186" style="enable-background:new 0 0 186 186;" xml:space="preserve">
<style type="text/css">
	.st0{fill:#171717;}
	.st1{fill:#FBBF24;}
</style>
<path class="st0" d="M93,0L93,0c51.4,0,93,41.6,93,93l0,0c0,51.4-41.6,93-93,93l0,0c-51.4,0-93-41.6-93-93l0,0C0,41.6,41.6,0,93,0z"
	/>
<path class="st1" d="M106,95.7c5.1-4,8.5-10.1,8.5-17.1c0-11.9-9.6-21.6-21.6-21.6s-21.5,9.7-21.5,21.6c0,7,3.3,13.1,8.5,17.1
	c-11.4,5-19.3,16.3-19.3,29.6c0,1.9,1.6,3.6,3.6,3.6c1.9,0,3.6-1.6,3.6-3.6c0-13.8,11.3-25.1,25.1-25.1s25.1,11.3,25.1,25.1
	c0,1.9,1.6,3.6,3.6,3.6c1.9,0,3.6-1.6,3.6-3.6C125.3,112.1,117.3,100.8,106,95.7z M78.7,78.7c0-7.9,6.5-14.3,14.3-14.3
	s14.3,6.5,14.3,14.3S100.9,93,93,93S78.7,86.5,78.7,78.7z"/>
</svg>
